<svg width="30" height="30" viewBox="0 0 30 30" fill="none" xmlns="http://www.w3.org/2000/svg">
<mask id="mask0_450_223" style="mask-type:alpha" maskUnits="userSpaceOnUse" x="0" y="0" width="30" height="30">
<rect width="30" height="30" fill="#D9D9D9"/>
</mask>
<g mask="url(#mask0_450_223)">
<path d="M5.67312 25.1922C5.30604 25.1922 4.99792 25.0676 4.74875 24.8184C4.49958 24.5693 4.375 24.2612 4.375 23.8944V10.2403C4.375 9.87344 4.49958 9.56542 4.74875 9.31625C4.99792 9.06687 5.30604 8.94219 5.67312 8.94219H9.375V5.24031C9.375 4.87344 9.49958 4.56542 9.74875 4.31625C9.99792 4.06687 10.306 3.94219 10.6731 3.94219H19.3269C19.694 3.94219 20.0021 4.06687 20.2512 4.31625C20.5004 4.56542 20.625 4.87344 20.625 5.24031V13.9422H24.3269C24.694 13.9422 25.0021 14.0669 25.2513 14.3162C25.5004 14.5654 25.625 14.8734 25.625 15.2403V23.8944C25.625 24.2612 25.5004 24.5693 25.2513 24.8184C25.0021 25.0676 24.694 25.1922 24.3269 25.1922H16.875V20.1922H13.125V25.1922H5.67312ZM5.625 23.9422H9.375V20.1922H5.625V23.9422ZM5.625 18.9422H9.375V15.1922H5.625V18.9422ZM5.625 13.9422H9.375V10.1922H5.625V13.9422ZM10.625 18.9422H14.375V15.1922H10.625V18.9422ZM10.625 13.9422H14.375V10.1922H10.625V13.9422ZM10.625 8.94219H14.375V5.19219H10.625V8.94219ZM15.625 18.9422H19.375V15.1922H15.625V18.9422ZM15.625 13.9422H19.375V10.1922H15.625V13.9422ZM15.625 8.94219H19.375V5.19219H15.625V8.94219ZM20.625 23.9422H24.375V20.1922H20.625V23.9422ZM20.625 18.9422H24.375V15.1922H20.625V18.9422Z" fill="#3B82F6"/>
</g>
</svg>
