<svg width="9" height="10" viewBox="0 0 9 10" fill="none" xmlns="http://www.w3.org/2000/svg">
<path d="M4.5 8.80511L1.69612 9.90055C1.29225 10.0586 0.908625 10.0283 0.54525 9.80942C0.18175 9.59071 0 9.28524 0 8.89301V1.10072C0 0.787075 0.115625 0.525209 0.346875 0.315125C0.578125 0.105042 0.866375 0 1.21162 0H7.78838C8.13363 0 8.42188 0.105042 8.65313 0.315125C8.88438 0.525209 9 0.787075 9 1.10072V8.89301C9 9.28524 8.81825 9.59071 8.45475 9.80942C8.09137 10.0283 7.70775 10.0586 7.30387 9.90055L4.5 8.80511ZM4.5 8.03995L7.60088 9.25583C7.75475 9.31703 7.90144 9.30397 8.04094 9.21665C8.18031 9.12921 8.25 9.01128 8.25 8.86286V1.10072C8.25 0.995796 8.20194 0.899669 8.10581 0.812342C8.00969 0.725015 7.90388 0.681352 7.78838 0.681352H1.21162C1.09612 0.681352 0.990313 0.725015 0.894188 0.812342C0.798063 0.899669 0.75 0.995796 0.75 1.10072V8.86286C0.75 9.01128 0.819687 9.12921 0.959062 9.21665C1.09856 9.30397 1.24525 9.31703 1.39912 9.25583L4.5 8.03995Z" fill="#232323"/>
</svg>
