<svg width="14" height="15" viewBox="0 0 14 15" fill="none" xmlns="http://www.w3.org/2000/svg">
<path d="M1.41356 14.5C1.01077 14.5 0.674479 14.3816 0.404687 14.1448C0.134896 13.9081 0 13.6129 0 13.2594V3.45366C0 3.10016 0.134896 2.80502 0.404687 2.56824C0.674479 2.33146 1.01077 2.21307 1.41356 2.21307H2.96144V0.913532C2.96144 0.794374 3.00606 0.695631 3.09531 0.617302C3.18456 0.5391 3.297 0.5 3.43263 0.5C3.5684 0.5 3.68091 0.5391 3.77016 0.617302C3.85926 0.695631 3.90381 0.794374 3.90381 0.913532V2.21307H10.1636V0.883967C10.1636 0.774664 10.2053 0.683344 10.2889 0.610006C10.3725 0.536668 10.4765 0.5 10.6011 0.5C10.7255 0.5 10.8294 0.536668 10.913 0.610006C10.9967 0.683344 11.0386 0.774664 11.0386 0.883967V2.21307H12.5864C12.9892 2.21307 13.3255 2.33146 13.5953 2.56824C13.8651 2.80502 14 3.10016 14 3.45366V13.2594C14 13.6129 13.8651 13.9081 13.5953 14.1448C13.3255 14.3816 12.9892 14.5 12.5864 14.5H1.41356ZM1.41356 13.7321H12.5864C12.7212 13.7321 12.8446 13.6829 12.9568 13.5844C13.0689 13.486 13.125 13.3777 13.125 13.2594V6.5254H0.875V13.2594C0.875 13.3777 0.931073 13.486 1.04322 13.5844C1.15536 13.6829 1.27881 13.7321 1.41356 13.7321ZM0.875 5.75727H13.125V3.45366C13.125 3.3354 13.0689 3.22706 12.9568 3.12864C12.8446 3.03021 12.7212 2.981 12.5864 2.981H1.41356C1.27881 2.981 1.15536 3.03021 1.04322 3.12864C0.931073 3.22706 0.875 3.3354 0.875 3.45366V5.75727ZM7 9.24254C6.81946 9.24254 6.6621 9.18373 6.52794 9.0661C6.39392 8.94848 6.32691 8.81038 6.32691 8.6518C6.32691 8.49335 6.39392 8.35532 6.52794 8.2377C6.6621 8.12007 6.81946 8.06126 7 8.06126C7.18054 8.06126 7.3379 8.12007 7.47206 8.2377C7.60608 8.35532 7.67309 8.49335 7.67309 8.6518C7.67309 8.81038 7.60608 8.94848 7.47206 9.0661C7.3379 9.18373 7.18054 9.24254 7 9.24254ZM3.5 9.24254C3.31946 9.24254 3.1621 9.18373 3.02794 9.0661C2.89392 8.94848 2.82691 8.81038 2.82691 8.6518C2.82691 8.49335 2.89392 8.35532 3.02794 8.2377C3.1621 8.12007 3.31946 8.06126 3.5 8.06126C3.68054 8.06126 3.8379 8.12007 3.97206 8.2377C4.10608 8.35532 4.17309 8.49335 4.17309 8.6518C4.17309 8.81038 4.10608 8.94848 3.97206 9.0661C3.8379 9.18373 3.68054 9.24254 3.5 9.24254ZM10.5 9.24254C10.3195 9.24254 10.1621 9.18373 10.0279 9.0661C9.89392 8.94848 9.82691 8.81038 9.82691 8.6518C9.82691 8.49335 9.89392 8.35532 10.0279 8.2377C10.1621 8.12007 10.3195 8.06126 10.5 8.06126C10.6805 8.06126 10.8379 8.12007 10.9721 8.2377C11.1061 8.35532 11.1731 8.49335 11.1731 8.6518C11.1731 8.81038 11.1061 8.94848 10.9721 9.0661C10.8379 9.18373 10.6805 9.24254 10.5 9.24254ZM7 12.1962C6.81946 12.1962 6.6621 12.1374 6.52794 12.0198C6.39392 11.9021 6.32691 11.764 6.32691 11.6055C6.32691 11.447 6.39392 11.3089 6.52794 11.1912C6.6621 11.0735 6.81946 11.0147 7 11.0147C7.18054 11.0147 7.3379 11.0735 7.47206 11.1912C7.60608 11.3089 7.67309 11.447 7.67309 11.6055C7.67309 11.764 7.60608 11.9021 7.47206 12.0198C7.3379 12.1374 7.18054 12.1962 7 12.1962ZM3.5 12.1962C3.31946 12.1962 3.1621 12.1374 3.02794 12.0198C2.89392 11.9021 2.82691 11.764 2.82691 11.6055C2.82691 11.447 2.89392 11.3089 3.02794 11.1912C3.1621 11.0735 3.31946 11.0147 3.5 11.0147C3.68054 11.0147 3.8379 11.0735 3.97206 11.1912C4.10608 11.3089 4.17309 11.447 4.17309 11.6055C4.17309 11.764 4.10608 11.9021 3.97206 12.0198C3.8379 12.1374 3.68054 12.1962 3.5 12.1962ZM10.5 12.1962C10.3195 12.1962 10.1621 12.1374 10.0279 12.0198C9.89392 11.9021 9.82691 11.764 9.82691 11.6055C9.82691 11.447 9.89392 11.3089 10.0279 11.1912C10.1621 11.0735 10.3195 11.0147 10.5 11.0147C10.6805 11.0147 10.8379 11.0735 10.9721 11.1912C11.1061 11.3089 11.1731 11.447 11.1731 11.6055C11.1731 11.764 11.1061 11.9021 10.9721 12.0198C10.8379 12.1374 10.6805 12.1962 10.5 12.1962Z" fill="#232323"/>
</svg>
