<svg width="31" height="31" viewBox="0 0 31 31" fill="none" xmlns="http://www.w3.org/2000/svg">
<mask id="mask0_450_235" style="mask-type:alpha" maskUnits="userSpaceOnUse" x="0" y="0" width="31" height="31">
<rect x="0.59375" y="0.649361" width="30" height="30" fill="#D9D9D9"/>
</mask>
<g mask="url(#mask0_450_235)">
<path d="M7.61312 26.8994C7.03771 26.8994 6.55729 26.7067 6.17188 26.3212C5.78646 25.9358 5.59375 25.4554 5.59375 24.88V8.91874C5.59375 8.34332 5.78646 7.8629 6.17188 7.47749C6.55729 7.09207 7.03771 6.89936 7.61312 6.89936H9.82438V4.78405C9.82438 4.59009 9.88813 4.42936 10.0156 4.30186C10.1431 4.17457 10.3038 4.11092 10.4975 4.11092C10.6915 4.11092 10.8522 4.17457 10.9797 4.30186C11.107 4.42936 11.1706 4.59009 11.1706 4.78405V6.89936H20.1131V4.73592C20.1131 4.55801 20.1728 4.40936 20.2922 4.28999C20.4116 4.17061 20.5602 4.11092 20.7381 4.11092C20.9158 4.11092 21.0644 4.17061 21.1838 4.28999C21.3033 4.40936 21.3631 4.55801 21.3631 4.73592V6.89936H23.5744C24.1498 6.89936 24.6302 7.09207 25.0156 7.47749C25.401 7.8629 25.5938 8.34332 25.5938 8.91874V24.88C25.5938 25.4554 25.401 25.9358 25.0156 26.3212C24.6302 26.7067 24.1498 26.8994 23.5744 26.8994H7.61312ZM7.61312 25.6494H23.5744C23.7669 25.6494 23.9432 25.5693 24.1034 25.409C24.2636 25.2488 24.3438 25.0725 24.3438 24.88V13.9187H6.84375V24.88C6.84375 25.0725 6.92385 25.2488 7.08406 25.409C7.24427 25.5693 7.42062 25.6494 7.61312 25.6494ZM6.84375 12.6684H24.3438V8.91874C24.3438 8.72624 24.2636 8.54988 24.1034 8.38967C23.9432 8.22947 23.7669 8.14936 23.5744 8.14936H7.61312C7.42062 8.14936 7.24427 8.22947 7.08406 8.38967C6.92385 8.54988 6.84375 8.72624 6.84375 8.91874V12.6684ZM15.5938 18.3415C15.3358 18.3415 15.111 18.2458 14.9194 18.0544C14.7279 17.8629 14.6322 17.6381 14.6322 17.38C14.6322 17.1221 14.7279 16.8974 14.9194 16.7059C15.111 16.5145 15.3358 16.4187 15.5938 16.4187C15.8517 16.4187 16.0765 16.5145 16.2681 16.7059C16.4596 16.8974 16.5553 17.1221 16.5553 17.38C16.5553 17.6381 16.4596 17.8629 16.2681 18.0544C16.0765 18.2458 15.8517 18.3415 15.5938 18.3415ZM10.5938 18.3415C10.3358 18.3415 10.111 18.2458 9.91938 18.0544C9.72792 17.8629 9.63219 17.6381 9.63219 17.38C9.63219 17.1221 9.72792 16.8974 9.91938 16.7059C10.111 16.5145 10.3358 16.4187 10.5938 16.4187C10.8517 16.4187 11.0765 16.5145 11.2681 16.7059C11.4596 16.8974 11.5553 17.1221 11.5553 17.38C11.5553 17.6381 11.4596 17.8629 11.2681 18.0544C11.0765 18.2458 10.8517 18.3415 10.5938 18.3415ZM20.5938 18.3415C20.3358 18.3415 20.111 18.2458 19.9194 18.0544C19.7279 17.8629 19.6322 17.6381 19.6322 17.38C19.6322 17.1221 19.7279 16.8974 19.9194 16.7059C20.111 16.5145 20.3358 16.4187 20.5938 16.4187C20.8517 16.4187 21.0765 16.5145 21.2681 16.7059C21.4596 16.8974 21.5553 17.1221 21.5553 17.38C21.5553 17.6381 21.4596 17.8629 21.2681 18.0544C21.0765 18.2458 20.8517 18.3415 20.5938 18.3415ZM15.5938 23.1494C15.3358 23.1494 15.111 23.0536 14.9194 22.8622C14.7279 22.6707 14.6322 22.4459 14.6322 22.1878C14.6322 21.9299 14.7279 21.7051 14.9194 21.5134C15.111 21.322 15.3358 21.2262 15.5938 21.2262C15.8517 21.2262 16.0765 21.322 16.2681 21.5134C16.4596 21.7051 16.5553 21.9299 16.5553 22.1878C16.5553 22.4459 16.4596 22.6707 16.2681 22.8622C16.0765 23.0536 15.8517 23.1494 15.5938 23.1494ZM10.5938 23.1494C10.3358 23.1494 10.111 23.0536 9.91938 22.8622C9.72792 22.6707 9.63219 22.4459 9.63219 22.1878C9.63219 21.9299 9.72792 21.7051 9.91938 21.5134C10.111 21.322 10.3358 21.2262 10.5938 21.2262C10.8517 21.2262 11.0765 21.322 11.2681 21.5134C11.4596 21.7051 11.5553 21.9299 11.5553 22.1878C11.5553 22.4459 11.4596 22.6707 11.2681 22.8622C11.0765 23.0536 10.8517 23.1494 10.5938 23.1494ZM20.5938 23.1494C20.3358 23.1494 20.111 23.0536 19.9194 22.8622C19.7279 22.6707 19.6322 22.4459 19.6322 22.1878C19.6322 21.9299 19.7279 21.7051 19.9194 21.5134C20.111 21.322 20.3358 21.2262 20.5938 21.2262C20.8517 21.2262 21.0765 21.322 21.2681 21.5134C21.4596 21.7051 21.5553 21.9299 21.5553 22.1878C21.5553 22.4459 21.4596 22.6707 21.2681 22.8622C21.0765 23.0536 20.8517 23.1494 20.5938 23.1494Z" fill="#3B82F6"/>
</g>
</svg>
