<svg width="30" height="30" viewBox="0 0 30 30" fill="none" xmlns="http://www.w3.org/2000/svg">
<mask id="mask0_426_429" style="mask-type:alpha" maskUnits="userSpaceOnUse" x="0" y="0" width="30" height="30">
<rect width="30" height="30" fill="#D9D9D9"/>
</mask>
<g mask="url(#mask0_426_429)">
<path d="M6.24948 22.9806V13.5697L4.32636 15.0672C4.17886 15.1795 4.02667 15.2228 3.8698 15.1972C3.71271 15.1716 3.57802 15.085 3.46573 14.9375C3.35365 14.79 3.30636 14.6377 3.32386 14.4806C3.34157 14.3237 3.42177 14.1892 3.56448 14.0769L6.24948 12V9.32687C6.24948 9.14896 6.30917 9.00031 6.42854 8.88093C6.54792 8.76156 6.69657 8.70187 6.87448 8.70187C7.0524 8.70187 7.20105 8.76156 7.32042 8.88093C7.4398 9.00031 7.49948 9.14896 7.49948 9.32687V11.0312L13.7807 6.2525C14.1589 5.97833 14.5691 5.84125 15.0114 5.84125C15.4539 5.84125 15.8561 5.97833 16.2182 6.2525L26.4345 14.0769C26.5772 14.1892 26.6574 14.3237 26.6751 14.4806C26.6926 14.6377 26.6453 14.79 26.5332 14.9375C26.4209 15.0802 26.2863 15.1644 26.1292 15.19C25.9723 15.2156 25.8225 15.1723 25.6798 15.06L23.7495 13.5697V22.9806C23.7495 23.54 23.5528 24.0165 23.1595 24.41C22.7659 24.8033 22.2895 25 21.7301 25H8.26886C7.70948 25 7.23302 24.8033 6.83948 24.41C6.44615 24.0165 6.24948 23.54 6.24948 22.9806ZM8.26886 23.75H13.2689V19.5194C13.2689 19.0369 13.4367 18.6278 13.7723 18.2922C14.1081 17.9564 14.5172 17.7884 14.9995 17.7884C15.4818 17.7884 15.8908 17.9564 16.2267 18.2922C16.5623 18.6278 16.7301 19.0369 16.7301 19.5194V23.75H21.7301C21.9545 23.75 22.1389 23.6779 22.2832 23.5337C22.4274 23.3894 22.4995 23.205 22.4995 22.9806V12.625L15.4564 7.26687C15.328 7.15458 15.1757 7.09843 14.9995 7.09843C14.8232 7.09843 14.6709 7.15458 14.5426 7.26687L7.49948 12.625V22.9806C7.49948 23.205 7.57157 23.3894 7.71573 23.5337C7.86011 23.6779 8.04448 23.75 8.26886 23.75ZM8.26886 23.75H22.4995H7.49948H8.26886ZM6.93698 7.21156C6.74636 7.21156 6.58886 7.13385 6.46448 6.97843C6.34032 6.82302 6.31271 6.65708 6.38167 6.48062C6.5275 5.87645 6.85084 5.39052 7.35167 5.02281C7.8525 4.6551 8.41459 4.47125 9.03792 4.47125C9.37938 4.47125 9.69427 4.37385 9.98261 4.17906C10.2711 3.98427 10.4515 3.72666 10.5235 3.40625C10.5635 3.28291 10.636 3.18114 10.741 3.10093C10.846 3.02072 10.965 2.98062 11.0979 2.98062C11.3048 2.98062 11.4731 3.06239 11.6029 3.22593C11.7327 3.38947 11.7631 3.56739 11.6942 3.75968C11.5323 4.34781 11.205 4.82177 10.7123 5.18156C10.2194 5.54135 9.66125 5.72125 9.03792 5.72125C8.69667 5.72125 8.38177 5.80531 8.09323 5.97343C7.80469 6.14177 7.62438 6.38864 7.5523 6.71406C7.49625 6.85343 7.41698 6.97114 7.31448 7.06718C7.21177 7.16343 7.08594 7.21156 6.93698 7.21156Z" fill="#1C1B1F"/>
</g>
</svg>
