<svg width="24" height="18" viewBox="0 0 24 18" fill="none" xmlns="http://www.w3.org/2000/svg">
<path d="M23.25 2.26937V15.7306C23.25 16.306 23.0573 16.7865 22.6719 17.1719C22.2865 17.5573 21.806 17.75 21.2306 17.75H2.76937C2.19396 17.75 1.71354 17.5573 1.32812 17.1719C0.942708 16.7865 0.75 16.306 0.75 15.7306V2.26937C0.75 1.69396 0.942708 1.21354 1.32812 0.828125C1.71354 0.442708 2.19396 0.25 2.76937 0.25H21.2306C21.806 0.25 22.2865 0.442708 22.6719 0.828125C23.0573 1.21354 23.25 1.69396 23.25 2.26937ZM2 5.00969H22V2.26937C22 2.07687 21.9199 1.90052 21.7597 1.74031C21.5995 1.5801 21.4231 1.5 21.2306 1.5H2.76937C2.57687 1.5 2.40052 1.5801 2.24031 1.74031C2.0801 1.90052 2 2.07687 2 2.26937V5.00969ZM2 7.99031V15.7306C2 15.9231 2.0801 16.0995 2.24031 16.2597C2.40052 16.4199 2.57687 16.5 2.76937 16.5H21.2306C21.4231 16.5 21.5995 16.4199 21.7597 16.2597C21.9199 16.0995 22 15.9231 22 15.7306V7.99031H2Z" fill="#1C1B1F"/>
</svg>
