<svg width="21" height="24" viewBox="0 0 21 24" fill="none" xmlns="http://www.w3.org/2000/svg">
<path d="M5.5 14.3556C5.24208 14.3556 5.01729 14.2599 4.82563 14.0685C4.63417 13.877 4.53844 13.6523 4.53844 13.3944C4.53844 13.1363 4.63417 12.9115 4.82563 12.72C5.01729 12.5286 5.24208 12.4328 5.5 12.4328C5.75792 12.4328 5.98271 12.5286 6.17437 12.72C6.36583 12.9115 6.46156 13.1363 6.46156 13.3944C6.46156 13.6523 6.36583 13.877 6.17437 14.0685C5.98271 14.2599 5.75792 14.3556 5.5 14.3556ZM10.5 14.3556C10.2421 14.3556 10.0173 14.2599 9.82563 14.0685C9.63417 13.877 9.53844 13.6523 9.53844 13.3944C9.53844 13.1363 9.63417 12.9115 9.82563 12.72C10.0173 12.5286 10.2421 12.4328 10.5 12.4328C10.7579 12.4328 10.9827 12.5286 11.1744 12.72C11.3658 12.9115 11.4616 13.1363 11.4616 13.3944C11.4616 13.6523 11.3658 13.877 11.1744 14.0685C10.9827 14.2599 10.7579 14.3556 10.5 14.3556ZM15.5 14.3556C15.2421 14.3556 15.0173 14.2599 14.8256 14.0685C14.6342 13.877 14.5384 13.6523 14.5384 13.3944C14.5384 13.1363 14.6342 12.9115 14.8256 12.72C15.0173 12.5286 15.2421 12.4328 15.5 12.4328C15.7579 12.4328 15.9827 12.5286 16.1744 12.72C16.3658 12.9115 16.4616 13.1363 16.4616 13.3944C16.4616 13.6523 16.3658 13.877 16.1744 14.0685C15.9827 14.2599 15.7579 14.3556 15.5 14.3556ZM2.51937 23.25C1.94396 23.25 1.46354 23.0573 1.07812 22.6719C0.692708 22.2865 0.5 21.8061 0.5 21.2306V5.26939C0.5 4.69397 0.692708 4.21356 1.07812 3.82814C1.46354 3.44272 1.94396 3.25002 2.51937 3.25002H4.73063V1.1347C4.73063 0.940744 4.79438 0.780015 4.92188 0.652515C5.04938 0.525224 5.21 0.461578 5.40375 0.461578C5.59771 0.461578 5.75844 0.525224 5.88594 0.652515C6.01323 0.780015 6.07687 0.940744 6.07687 1.1347V3.25002H15.0194V1.08658C15.0194 0.908662 15.0791 0.760015 15.1984 0.64064C15.3178 0.521265 15.4665 0.461578 15.6444 0.461578C15.8221 0.461578 15.9706 0.521265 16.09 0.64064C16.2096 0.760015 16.2694 0.908662 16.2694 1.08658V3.25002H18.4806C19.056 3.25002 19.5365 3.44272 19.9219 3.82814C20.3073 4.21356 20.5 4.69397 20.5 5.26939V21.2306C20.5 21.8061 20.3073 22.2865 19.9219 22.6719C19.5365 23.0573 19.056 23.25 18.4806 23.25H2.51937ZM2.51937 22H18.4806C18.6731 22 18.8495 21.9199 19.0097 21.7597C19.1699 21.5995 19.25 21.4231 19.25 21.2306V10.2694H1.75V21.2306C1.75 21.4231 1.8301 21.5995 1.99031 21.7597C2.15052 21.9199 2.32687 22 2.51937 22ZM1.75 9.01908H19.25V5.26939C19.25 5.07689 19.1699 4.90054 19.0097 4.74033C18.8495 4.58012 18.6731 4.50002 18.4806 4.50002H2.51937C2.32687 4.50002 2.15052 4.58012 1.99031 4.74033C1.8301 4.90054 1.75 5.07689 1.75 5.26939V9.01908Z" fill="#1C1B1F"/>
</svg>
