<svg width="21" height="18" viewBox="0 0 21 18" fill="none" xmlns="http://www.w3.org/2000/svg">
<path d="M2.03844 15.5V17.2306C2.03844 17.4444 1.96344 17.626 1.81344 17.7756C1.66323 17.9252 1.48083 18 1.26625 18C1.05188 18 0.870625 17.9252 0.7225 17.7756C0.574167 17.626 0.5 17.4444 0.5 17.2306V8.53375C0.5 8.42 0.506458 8.30615 0.519375 8.19219C0.532083 8.07844 0.557396 7.96521 0.595313 7.8525L2.72844 1.85094C2.86135 1.45073 3.10229 1.12552 3.45125 0.875313C3.80021 0.625104 4.19063 0.5 4.6225 0.5H16.3775C16.8094 0.5 17.1998 0.625104 17.5487 0.875313C17.8977 1.12552 18.1386 1.45073 18.2716 1.85094L20.4047 7.8525C20.4426 7.96521 20.4679 8.07844 20.4806 8.19219C20.4935 8.30615 20.5 8.42 20.5 8.53375V17.2306C20.5 17.4444 20.4249 17.626 20.2747 17.7756C20.1247 17.9252 19.9424 18 19.7278 18C19.5134 18 19.3321 17.9252 19.1838 17.7756C19.0356 17.626 18.9616 17.4444 18.9616 17.2306V15.5H2.03844ZM2.26937 6.94219H18.7306L17.0819 2.25469C17.0177 2.09448 16.9215 1.97031 16.7931 1.88219C16.665 1.79406 16.5128 1.75 16.3366 1.75H4.66344C4.48719 1.75 4.335 1.79406 4.20687 1.88219C4.07854 1.97031 3.98229 2.09448 3.91813 2.25469L2.26937 6.94219ZM4.78438 12.6153C5.17333 12.6153 5.50198 12.4793 5.77031 12.2072C6.03885 11.9349 6.17313 11.6044 6.17313 11.2156C6.17313 10.8267 6.03698 10.498 5.76469 10.2297C5.4926 9.96115 5.16208 9.82687 4.77312 9.82687C4.38437 9.82687 4.05573 9.96302 3.78719 10.2353C3.51885 10.5074 3.38469 10.8379 3.38469 11.2269C3.38469 11.6156 3.52073 11.9443 3.79281 12.2128C4.0651 12.4811 4.39563 12.6153 4.78438 12.6153ZM16.2269 12.6153C16.6156 12.6153 16.9443 12.4793 17.2128 12.2072C17.4811 11.9349 17.6153 11.6044 17.6153 11.2156C17.6153 10.8267 17.4793 10.498 17.2072 10.2297C16.9349 9.96115 16.6044 9.82687 16.2156 9.82687C15.8267 9.82687 15.498 9.96302 15.2297 10.2353C14.9611 10.5074 14.8269 10.8379 14.8269 11.2269C14.8269 11.6156 14.963 11.9443 15.2353 12.2128C15.5074 12.4811 15.8379 12.6153 16.2269 12.6153ZM1.75 14.25H19.25V8.19219H1.75V14.25Z" fill="#1C1B1F"/>
</svg>
