<svg width="17" height="17" viewBox="0 0 17 17" fill="none" xmlns="http://www.w3.org/2000/svg">
<path d="M2.65394 14.8333C2.28951 14.8333 1.98524 14.7113 1.74115 14.4672C1.49705 14.2231 1.375 13.9188 1.375 13.5544V5.82061C1.375 5.45618 1.49705 5.15191 1.74115 4.90782C1.98524 4.66372 2.28951 4.54167 2.65394 4.54167H6.125V3.44541C6.125 3.08111 6.24705 2.77691 6.49115 2.53282C6.73524 2.28872 7.03951 2.16667 7.40394 2.16667H9.59606C9.96049 2.16667 10.2648 2.28872 10.5089 2.53282C10.753 2.77691 10.875 3.08111 10.875 3.44541V4.54167H14.3461C14.7105 4.54167 15.0148 4.66372 15.2589 4.90782C15.503 5.15191 15.625 5.45618 15.625 5.82061V13.5544C15.625 13.9188 15.503 14.2231 15.2589 14.4672C15.0148 14.7113 14.7105 14.8333 14.3461 14.8333H2.65394ZM2.65394 14.0417H14.3461C14.468 14.0417 14.5797 13.9909 14.6811 13.8895C14.7826 13.788 14.8333 13.6763 14.8333 13.5544V5.82061C14.8333 5.69869 14.7826 5.587 14.6811 5.48554C14.5797 5.38407 14.468 5.33334 14.3461 5.33334H2.65394C2.53202 5.33334 2.42033 5.38407 2.31886 5.48554C2.2174 5.587 2.16667 5.69869 2.16667 5.82061V13.5544C2.16667 13.6763 2.2174 13.788 2.31886 13.8895C2.42033 13.9909 2.53202 14.0417 2.65394 14.0417ZM6.91667 4.54167H10.0833V3.44541C10.0833 3.32363 10.0326 3.212 9.93114 3.11054C9.82967 3.00907 9.71798 2.95834 9.59606 2.95834H7.40394C7.28202 2.95834 7.17033 3.00907 7.06886 3.11054C6.9674 3.212 6.91667 3.32363 6.91667 3.44541V4.54167Z" fill="#1C1B1F"/>
</svg>
