<svg width="30" height="30" viewBox="0 0 30 30" fill="none" xmlns="http://www.w3.org/2000/svg">
<mask id="mask0_426_439" style="mask-type:alpha" maskUnits="userSpaceOnUse" x="0" y="0" width="30" height="30">
<rect width="30" height="30" fill="#D9D9D9"/>
</mask>
<g mask="url(#mask0_426_439)">
<path d="M8.81318 9.69719L4.93818 13.5722C4.78922 13.7211 4.60297 13.7969 4.37943 13.7994C4.15568 13.8017 3.96693 13.7259 3.81318 13.5722C3.66422 13.423 3.58849 13.2367 3.58599 13.0131C3.5837 12.7896 3.65703 12.6009 3.80599 12.4472L5.0488 11.1972L4.63036 10.7788C4.42849 10.5769 4.32755 10.3414 4.32755 10.0722C4.32755 9.80282 4.42849 9.56719 4.63036 9.36532L6.5488 7.44719L5.2338 6.125C5.11693 6.00792 5.05443 5.86573 5.0463 5.69844C5.03839 5.53094 5.10328 5.37823 5.24099 5.24032C5.37411 5.1074 5.52036 5.03969 5.67974 5.03719C5.83911 5.0349 5.98776 5.10021 6.12568 5.23313L7.44786 6.54813L9.36599 4.62969C9.56786 4.42782 9.80349 4.32688 10.0729 4.32688C10.342 4.32688 10.5776 4.42782 10.7794 4.62969L11.1979 5.04813L12.4479 3.80532C12.5968 3.65636 12.7831 3.58188 13.0066 3.58188C13.2302 3.58188 13.4189 3.65875 13.5729 3.8125C13.7218 3.96146 13.7963 4.14896 13.7963 4.375C13.7963 4.60105 13.7218 4.78855 13.5729 4.9375L9.69786 8.8125L21.1882 20.3028L25.0632 16.4278C25.2121 16.2789 25.3984 16.2031 25.6219 16.2006C25.8457 16.1983 26.0344 16.2741 26.1882 16.4278C26.3371 16.577 26.4129 16.7633 26.4154 16.9869C26.4177 17.2104 26.3443 17.3991 26.1954 17.5528L24.9526 18.8028L25.371 19.2213C25.5729 19.4231 25.6738 19.6587 25.6738 19.9278C25.6738 20.1972 25.5729 20.4328 25.371 20.6347L23.4526 22.5528L24.7676 23.875C24.8844 23.9921 24.9469 24.1343 24.9551 24.3016C24.963 24.4691 24.8981 24.6218 24.7604 24.7597C24.6272 24.8926 24.481 24.9603 24.3216 24.9628C24.1622 24.9651 24.0136 24.8998 23.8757 24.7669L22.5535 23.4519L20.6354 25.3703C20.4335 25.5722 20.1979 25.6731 19.9285 25.6731C19.6593 25.6731 19.4238 25.5722 19.2219 25.3703L18.8035 24.9519L17.5535 26.1947C17.4045 26.3436 17.2183 26.4181 16.9947 26.4181C16.7712 26.4181 16.5824 26.3413 16.4285 26.1875C16.2795 26.0385 16.2051 25.851 16.2051 25.625C16.2051 25.399 16.2795 25.2115 16.4285 25.0625L20.3035 21.1875L8.81318 9.69719Z" fill="#1C1B1F"/>
</g>
</svg>
