<svg width="30" height="30" viewBox="0 0 30 30" fill="none" xmlns="http://www.w3.org/2000/svg">
<mask id="mask0_426_424" style="mask-type:alpha" maskUnits="userSpaceOnUse" x="0" y="0" width="30" height="30">
<rect width="30" height="30" fill="#D9D9D9"/>
</mask>
<g mask="url(#mask0_426_424)">
<path d="M6.875 25C6.69792 25 6.54948 24.94 6.42969 24.82C6.3099 24.7 6.25 24.5514 6.25 24.3741C6.25 24.1968 6.3099 24.0484 6.42969 23.9291C6.54948 23.8097 6.69792 23.75 6.875 23.75H23.125C23.3021 23.75 23.4505 23.81 23.5703 23.93C23.6901 24.05 23.75 24.1986 23.75 24.3759C23.75 24.5532 23.6901 24.7016 23.5703 24.8209C23.4505 24.9403 23.3021 25 23.125 25H6.875ZM10.1681 20.2884C9.08167 20.2884 8.15708 19.9191 7.39437 19.1803C6.63146 18.4416 6.25 17.5449 6.25 16.4903V6.29812C6.25 5.93104 6.37458 5.62292 6.62375 5.37375C6.87292 5.12458 7.18104 5 7.54812 5H24.1347C24.7164 5 25.2144 5.19667 25.6287 5.59C26.0429 5.98354 26.25 6.46792 26.25 7.04313V9.83187C26.25 10.4071 26.0429 10.8915 25.6287 11.285C25.2144 11.6783 24.7164 11.875 24.1347 11.875H21.6347V16.4903C21.6347 17.5449 21.2532 18.4416 20.4903 19.1803C19.7276 19.9191 18.8029 20.2884 17.7162 20.2884H10.1681ZM10.1681 19.0384H17.7162C18.45 19.0384 19.0782 18.788 19.6009 18.2872C20.1234 17.7864 20.3847 17.1842 20.3847 16.4806V6.25H7.5V16.4897C7.5 17.1936 7.76125 17.7945 8.28375 18.2922C8.80625 18.7897 9.43438 19.0384 10.1681 19.0384ZM21.6347 10.625H24.1347C24.3751 10.625 24.5794 10.5489 24.7475 10.3966C24.9158 10.2443 25 10.056 25 9.83187V7.04313C25 6.81896 24.9158 6.63073 24.7475 6.47844C24.5794 6.32615 24.3751 6.25 24.1347 6.25H21.6347V10.625ZM10.1681 19.0384H7.5H20.3847H10.1681Z" fill="#1C1B1F"/>
</g>
</svg>
