<svg width="17" height="17" viewBox="0 0 17 17" fill="none" xmlns="http://www.w3.org/2000/svg">
<path d="M14.875 7.08331C14.875 12.0416 8.5 16.2916 8.5 16.2916C8.5 16.2916 2.125 12.0416 2.125 7.08331C2.125 5.39256 2.79665 3.77105 3.99219 2.57551C5.18774 1.37996 6.80924 0.708313 8.5 0.708313C10.1908 0.708313 11.8123 1.37996 13.0078 2.57551C14.2033 3.77105 14.875 5.39256 14.875 7.08331Z" stroke="#3B82F6" stroke-linecap="round" stroke-linejoin="round"/>
<path d="M8.5 9.20831C9.6736 9.20831 10.625 8.25692 10.625 7.08331C10.625 5.90971 9.6736 4.95831 8.5 4.95831C7.32639 4.95831 6.375 5.90971 6.375 7.08331C6.375 8.25692 7.32639 9.20831 8.5 9.20831Z" stroke="#3B82F6" stroke-linecap="round" stroke-linejoin="round"/>
</svg>
