<svg width="23" height="22" viewBox="0 0 23 22" fill="none" xmlns="http://www.w3.org/2000/svg">
<path d="M10.875 13.125V16.25C10.875 16.4279 10.9347 16.5766 11.0541 16.6959C11.1734 16.8153 11.3221 16.875 11.5 16.875C11.6779 16.875 11.8266 16.8153 11.9459 16.6959C12.0653 16.5766 12.125 16.4279 12.125 16.25V13.125H15.25C15.4279 13.125 15.5766 13.0653 15.6959 12.9459C15.8153 12.8266 15.875 12.6779 15.875 12.5C15.875 12.3221 15.8153 12.1734 15.6959 12.0541C15.5766 11.9347 15.4279 11.875 15.25 11.875H12.125V8.75C12.125 8.57208 12.0653 8.42344 11.9459 8.30406C11.8266 8.18469 11.6779 8.125 11.5 8.125C11.3221 8.125 11.1734 8.18469 11.0541 8.30406C10.9347 8.42344 10.875 8.57208 10.875 8.75V11.875H7.75C7.57208 11.875 7.42344 11.9347 7.30406 12.0541C7.18469 12.1734 7.125 12.3221 7.125 12.5C7.125 12.6779 7.18469 12.8266 7.30406 12.9459C7.42344 13.0653 7.57208 13.125 7.75 13.125H10.875ZM2.26937 21.25C1.69396 21.25 1.21354 21.0573 0.828125 20.6719C0.442708 20.2865 0.25 19.806 0.25 19.2306V5.76937C0.25 5.19396 0.442708 4.71354 0.828125 4.32812C1.21354 3.94271 1.69396 3.75 2.26937 3.75H7.75V2.01906C7.75 1.44385 7.94271 0.963542 8.32812 0.578125C8.71354 0.192708 9.19396 0 9.76937 0H13.2306C13.806 0 14.2865 0.192708 14.6719 0.578125C15.0573 0.963542 15.25 1.44385 15.25 2.01906V3.75H20.7306C21.306 3.75 21.7865 3.94271 22.1719 4.32812C22.5573 4.71354 22.75 5.19396 22.75 5.76937V19.2306C22.75 19.806 22.5573 20.2865 22.1719 20.6719C21.7865 21.0573 21.306 21.25 20.7306 21.25H2.26937ZM2.26937 20H20.7306C20.9231 20 21.0995 19.9199 21.2597 19.7597C21.4199 19.5995 21.5 19.4231 21.5 19.2306V5.76937C21.5 5.57687 21.4199 5.40052 21.2597 5.24031C21.0995 5.0801 20.9231 5 20.7306 5H2.26937C2.07687 5 1.90052 5.0801 1.74031 5.24031C1.5801 5.40052 1.5 5.57687 1.5 5.76937V19.2306C1.5 19.4231 1.5801 19.5995 1.74031 19.7597C1.90052 19.9199 2.07687 20 2.26937 20ZM9 3.75H14V2.01906C14 1.82677 13.9199 1.65052 13.7597 1.49031C13.5995 1.3301 13.4231 1.25 13.2306 1.25H9.76937C9.57687 1.25 9.40052 1.3301 9.24031 1.49031C9.0801 1.65052 9 1.82677 9 2.01906V3.75Z" fill="#1C1B1F"/>
</svg>
