<svg width="30" height="30" viewBox="0 0 30 30" fill="none" xmlns="http://www.w3.org/2000/svg">
<mask id="mask0_450_216" style="mask-type:alpha" maskUnits="userSpaceOnUse" x="0" y="0" width="30" height="30">
<rect width="30" height="30" fill="#D9D9D9"/>
</mask>
<g mask="url(#mask0_450_216)">
<path d="M9.65394 20.8333C9.28951 20.8333 8.98524 20.7113 8.74115 20.4672C8.49705 20.2231 8.375 19.9188 8.375 19.5544V11.8206C8.375 11.4562 8.49705 11.1519 8.74115 10.9078C8.98524 10.6637 9.28951 10.5417 9.65394 10.5417H13.125V9.44541C13.125 9.08111 13.247 8.77691 13.4911 8.53282C13.7352 8.28872 14.0395 8.16667 14.4039 8.16667H16.5961C16.9605 8.16667 17.2648 8.28872 17.5089 8.53282C17.753 8.77691 17.875 9.08111 17.875 9.44541V10.5417H21.3461C21.7105 10.5417 22.0148 10.6637 22.2589 10.9078C22.503 11.1519 22.625 11.4562 22.625 11.8206V19.5544C22.625 19.9188 22.503 20.2231 22.2589 20.4672C22.0148 20.7113 21.7105 20.8333 21.3461 20.8333H9.65394ZM9.65394 20.0417H21.3461C21.468 20.0417 21.5797 19.9909 21.6811 19.8895C21.7826 19.788 21.8333 19.6763 21.8333 19.5544V11.8206C21.8333 11.6987 21.7826 11.587 21.6811 11.4855C21.5797 11.3841 21.468 11.3333 21.3461 11.3333H9.65394C9.53202 11.3333 9.42033 11.3841 9.31886 11.4855C9.2174 11.587 9.16667 11.6987 9.16667 11.8206V19.5544C9.16667 19.6763 9.2174 19.788 9.31886 19.8895C9.42033 19.9909 9.53202 20.0417 9.65394 20.0417ZM13.9167 10.5417H17.0833V9.44541C17.0833 9.32363 17.0326 9.212 16.9311 9.11054C16.8297 9.00907 16.718 8.95834 16.5961 8.95834H14.4039C14.282 8.95834 14.1703 9.00907 14.0689 9.11054C13.9674 9.212 13.9167 9.32363 13.9167 9.44541V10.5417Z" fill="#3B82F6"/>
</g>
</svg>
