<svg width="30" height="30" viewBox="0 0 30 30" fill="none" xmlns="http://www.w3.org/2000/svg">
<mask id="mask0_450_209" style="mask-type:alpha" maskUnits="userSpaceOnUse" x="0" y="0" width="30" height="30">
<rect width="30" height="30" fill="#D9D9D9"/>
</mask>
<g mask="url(#mask0_450_209)">
<path d="M8.54734 19.8631C8.22672 19.6819 7.97193 19.4356 7.78297 19.1244C7.5938 18.8131 7.49922 18.464 7.49922 18.0769V13.2306L5.50891 12.1275C5.32766 12.0185 5.19297 11.8901 5.10484 11.7422C5.01672 11.5943 4.97266 11.43 4.97266 11.2494C4.97266 11.0687 5.01672 10.9047 5.10484 10.7572C5.19297 10.6097 5.32766 10.4815 5.50891 10.3725L14.0342 5.7225C14.1855 5.63833 14.3417 5.57823 14.503 5.54219C14.6642 5.50615 14.8296 5.48812 14.9992 5.48812C15.1688 5.48812 15.3342 5.50615 15.4955 5.54219C15.6567 5.57823 15.8133 5.63812 15.9652 5.72187L25.617 10.9544C25.7933 11.0585 25.9267 11.1893 26.0173 11.3466C26.1078 11.5039 26.153 11.6735 26.153 11.8556V18.6056C26.153 18.7827 26.0931 18.9311 25.9733 19.0509C25.8533 19.1709 25.7046 19.2309 25.5273 19.2309C25.3498 19.2309 25.2014 19.1709 25.082 19.0509C24.9627 18.9311 24.903 18.7827 24.903 18.6056V11.9519L22.4992 13.2306V18.0769C22.4992 18.464 22.4046 18.8131 22.2155 19.1244C22.0265 19.4356 21.7717 19.6819 21.4511 19.8631L15.9705 22.8294C15.8151 22.9175 15.6567 22.9796 15.4955 23.0156C15.3342 23.0517 15.1688 23.0697 14.9992 23.0697C14.8296 23.0697 14.6642 23.0517 14.503 23.0156C14.3417 22.9796 14.1834 22.9175 14.028 22.8294L8.54734 19.8631ZM14.7108 15.7306C14.8229 15.7948 14.923 15.8269 15.0111 15.8269C15.0994 15.8269 15.1996 15.7948 15.3117 15.7306L23.5377 11.25L15.3117 6.79313C15.1996 6.72917 15.0994 6.69719 15.0111 6.69719C14.923 6.69719 14.8229 6.72917 14.7108 6.79313L6.46078 11.25L14.7108 15.7306ZM14.6867 21.7716C14.7988 21.8357 14.903 21.8678 14.9992 21.8678C15.0955 21.8678 15.1996 21.8357 15.3117 21.7716L20.8886 18.7572C21.0169 18.677 21.1091 18.5848 21.1652 18.4806C21.2212 18.3765 21.2492 18.2443 21.2492 18.0841V13.9181L15.9777 16.7956C15.8222 16.8838 15.6643 16.9458 15.5039 16.9819C15.3437 17.0179 15.1755 17.0359 14.9992 17.0359C14.823 17.0359 14.6547 17.0179 14.4945 16.9819C14.3341 16.9458 14.1762 16.8838 14.0208 16.7956L8.74922 13.9181V18.0841C8.74922 18.2124 8.77724 18.3367 8.83328 18.4569C8.88932 18.5769 8.98151 18.677 9.10984 18.7572L14.6867 21.7716Z" fill="#3B82F6"/>
</g>
</svg>
