<svg width="17" height="15" viewBox="0 0 17 15" fill="none" xmlns="http://www.w3.org/2000/svg">
<path d="M2.85975 11.5C2.60325 11.355 2.39942 11.158 2.24825 10.909C2.09692 10.66 2.02125 10.3807 2.02125 10.071V6.194L0.429 5.3115C0.284 5.22433 0.17625 5.12158 0.10575 5.00325C0.0352503 4.88492 0 4.7535 0 4.609C0 4.4645 0.0352503 4.33325 0.10575 4.21525C0.17625 4.09725 0.284 3.99467 0.429 3.9075L7.24925 0.1875C7.37025 0.120167 7.49525 0.0720828 7.62425 0.0432495C7.75325 0.0144162 7.88558 0 8.02125 0C8.15692 0 8.28925 0.0144162 8.41825 0.0432495C8.54725 0.0720828 8.6725 0.12 8.794 0.187L16.5155 4.373C16.6565 4.45633 16.7633 4.56092 16.8358 4.68675C16.9081 4.81258 16.9443 4.94833 16.9443 5.094V10.494C16.9443 10.6357 16.8963 10.7544 16.8005 10.8503C16.7045 10.9462 16.5856 10.9943 16.4437 10.9943C16.3017 10.9943 16.183 10.9462 16.0875 10.8503C15.992 10.7544 15.9442 10.6357 15.9442 10.494V5.171L14.0212 6.194V10.071C14.0212 10.3807 13.9456 10.66 13.7942 10.909C13.6431 11.158 13.4393 11.355 13.1828 11.5L8.79825 13.873C8.67392 13.9435 8.54725 13.9932 8.41825 14.022C8.28925 14.0508 8.15692 14.0652 8.02125 14.0652C7.88558 14.0652 7.75325 14.0508 7.62425 14.022C7.49525 13.9932 7.36858 13.9435 7.24425 13.873L2.85975 11.5ZM7.7905 8.194C7.88017 8.24533 7.96025 8.271 8.03075 8.271C8.10142 8.271 8.18158 8.24533 8.27125 8.194L14.852 4.6095L8.27125 1.044C8.18158 0.992834 8.10142 0.96725 8.03075 0.96725C7.96025 0.96725 7.88017 0.992834 7.7905 1.044L1.1905 4.6095L7.7905 8.194ZM7.77125 13.0268C7.86092 13.0781 7.94425 13.1038 8.02125 13.1038C8.09825 13.1038 8.18158 13.0781 8.27125 13.0268L12.7327 10.6153C12.8354 10.5511 12.9092 10.4773 12.954 10.394C12.9988 10.3107 13.0212 10.2049 13.0212 10.0768V6.744L8.804 9.046C8.67967 9.1165 8.55333 9.16617 8.425 9.195C8.29683 9.22383 8.16225 9.23825 8.02125 9.23825C7.88025 9.23825 7.74567 9.22383 7.6175 9.195C7.48917 9.16617 7.36283 9.1165 7.2385 9.046L3.02125 6.744V10.0768C3.02125 10.1794 3.04367 10.2788 3.0885 10.375C3.13333 10.471 3.20708 10.5511 3.30975 10.6153L7.77125 13.0268Z" fill="#232323" fill-opacity="0.5"/>
</svg>
