<svg width="16" height="10" viewBox="0 0 16 10" fill="none" xmlns="http://www.w3.org/2000/svg">
<path d="M0.5 10C0.358333 10 0.239583 9.952 0.14375 9.856C0.0479167 9.76 0 9.64108 0 9.49925C0 9.35742 0.0479167 9.23875 0.14375 9.14325C0.239583 9.04775 0.358333 9 0.5 9H4.25C4.39167 9 4.51042 9.048 4.60625 9.144C4.70208 9.24 4.75 9.35892 4.75 9.50075C4.75 9.64258 4.70208 9.76125 4.60625 9.85675C4.51042 9.95225 4.39167 10 4.25 10H0.5ZM0.5 5.5C0.358333 5.5 0.239583 5.452 0.14375 5.356C0.0479167 5.26 0 5.14108 0 4.99925C0 4.85742 0.0479167 4.73875 0.14375 4.64325C0.239583 4.54775 0.358333 4.5 0.5 4.5H9.8655C10.0072 4.5 10.1259 4.548 10.2218 4.644C10.3176 4.74 10.3655 4.85892 10.3655 5.00075C10.3655 5.14258 10.3176 5.26125 10.2218 5.35675C10.1259 5.45225 10.0072 5.5 9.8655 5.5H0.5ZM0.5 1C0.358333 1 0.239583 0.952 0.14375 0.856C0.0479167 0.76 0 0.641083 0 0.499249C0 0.357416 0.0479167 0.23875 0.14375 0.14325C0.239583 0.0477495 0.358333 0 0.5 0H15.5C15.6417 0 15.7604 0.0480002 15.8562 0.144C15.9521 0.24 16 0.358917 16 0.500751C16 0.642584 15.9521 0.76125 15.8562 0.85675C15.7604 0.95225 15.6417 1 15.5 1H0.5Z" fill="#1C1B1F" fill-opacity="0.5"/>
</svg>
