<svg width="30" height="30" viewBox="0 0 30 30" fill="none" xmlns="http://www.w3.org/2000/svg">
<mask id="mask0_450_200" style="mask-type:alpha" maskUnits="userSpaceOnUse" x="0" y="0" width="30" height="30">
<rect width="30" height="30" fill="#D9D9D9"/>
</mask>
<g mask="url(#mask0_450_200)">
<path d="M5.76937 25C5.21 25 4.73354 24.8033 4.34 24.41C3.94667 24.0165 3.75 23.54 3.75 22.9806V10.7694C3.75 10.21 3.94667 9.73354 4.34 9.34C4.73354 8.94667 5.21 8.75 5.76937 8.75H11.25V7.01906C11.25 6.4599 11.4467 5.98354 11.84 5.59C12.2335 5.19667 12.71 5 13.2694 5H16.7306C17.29 5 17.7665 5.19667 18.16 5.59C18.5533 5.98354 18.75 6.4599 18.75 7.01906V8.75H24.2306C24.79 8.75 25.2665 8.94667 25.66 9.34C26.0533 9.73354 26.25 10.21 26.25 10.7694V22.9806C26.25 23.54 26.0533 24.0165 25.66 24.41C25.2665 24.8033 24.79 25 24.2306 25H5.76937ZM12.5 8.75H17.5V7.01906C17.5 6.82677 17.4199 6.65052 17.2597 6.49031C17.0995 6.3301 16.9231 6.25 16.7306 6.25H13.2694C13.0769 6.25 12.9005 6.3301 12.7403 6.49031C12.5801 6.65052 12.5 6.82677 12.5 7.01906V8.75ZM8.75 10H5.76937C5.57687 10 5.40052 10.0801 5.24031 10.2403C5.0801 10.4005 5 10.5769 5 10.7694V22.9806C5 23.1731 5.0801 23.3495 5.24031 23.5097C5.40052 23.6699 5.57687 23.75 5.76937 23.75H8.75V10ZM20 23.75V10H10V23.75H20ZM21.25 10V23.75H24.2306C24.4231 23.75 24.5995 23.6699 24.7597 23.5097C24.9199 23.3495 25 23.1731 25 22.9806V10.7694C25 10.5769 24.9199 10.4005 24.7597 10.2403C24.5995 10.0801 24.4231 10 24.2306 10H21.25Z" fill="#3B82F6"/>
</g>
</svg>
