<svg width="18" height="13" viewBox="0 0 18 13" fill="none" xmlns="http://www.w3.org/2000/svg">
<path d="M5 7.5H2.94225C2.81542 7.5 2.71 7.542 2.626 7.626C2.542 7.71 2.5 7.81542 2.5 7.94225C2.5 8.06925 2.542 8.17475 2.626 8.25875C2.71 8.34258 2.81542 8.3845 2.94225 8.3845H5.1155C5.32183 8.3845 5.50158 8.30792 5.65475 8.15475C5.80792 8.00158 5.8845 7.82183 5.8845 7.6155V6.01925C5.8845 5.81275 5.80792 5.63292 5.65475 5.47975C5.50158 5.32658 5.32183 5.25 5.1155 5.25H3.3845V3.8845H5.44225C5.56925 3.8845 5.67475 3.84258 5.75875 3.75875C5.84258 3.67475 5.8845 3.56925 5.8845 3.44225C5.8845 3.31542 5.84258 3.21 5.75875 3.126C5.67475 3.042 5.56925 3 5.44225 3H2.94225C2.81542 3 2.71 3.042 2.626 3.126C2.542 3.21 2.5 3.31542 2.5 3.44225V5.69225C2.5 5.81925 2.542 5.92475 2.626 6.00875C2.71 6.09258 2.81542 6.1345 2.94225 6.1345H5V7.5ZM12 7.423C10.9667 7.423 10.1571 7.583 9.57125 7.903C8.98525 8.22283 8.69225 8.67442 8.69225 9.25775V9.40375C8.69225 9.51158 8.73267 9.60583 8.8135 9.6865C8.89417 9.76733 8.98842 9.80775 9.09625 9.80775H14.9038C15.0116 9.80775 15.1058 9.76733 15.1865 9.6865C15.2673 9.60583 15.3077 9.51158 15.3077 9.40375V9.25775C15.3077 8.67442 15.0148 8.22283 14.4288 7.903C13.8429 7.583 13.0333 7.423 12 7.423ZM12 6.19225C12.4218 6.19225 12.7773 6.04775 13.0663 5.75875C13.3554 5.46958 13.5 5.11408 13.5 4.69225C13.5 4.27042 13.3554 3.915 13.0663 3.626C12.7773 3.33683 12.4218 3.19225 12 3.19225C11.5782 3.19225 11.2227 3.33683 10.9337 3.626C10.6446 3.915 10.5 4.27042 10.5 4.69225C10.5 5.11408 10.6446 5.46958 10.9337 5.75875C11.2227 6.04775 11.5782 6.19225 12 6.19225ZM1.6155 12.5C1.15517 12.5 0.770833 12.3458 0.4625 12.0375C0.154167 11.7292 0 11.3448 0 10.8845V2.1155C0 1.65517 0.154167 1.27083 0.4625 0.9625C0.770833 0.654167 1.15517 0.5 1.6155 0.5H16.3845C16.8448 0.5 17.2292 0.654167 17.5375 0.9625C17.8458 1.27083 18 1.65517 18 2.1155V10.8845C18 11.3448 17.8458 11.7292 17.5375 12.0375C17.2292 12.3458 16.8448 12.5 16.3845 12.5H1.6155ZM1.6155 11.5H16.3845C16.5385 11.5 16.6796 11.4359 16.8078 11.3077C16.9359 11.1796 17 11.0385 17 10.8845V2.1155C17 1.9615 16.9359 1.82042 16.8078 1.69225C16.6796 1.56408 16.5385 1.5 16.3845 1.5H1.6155C1.4615 1.5 1.32042 1.56408 1.19225 1.69225C1.06408 1.82042 1 1.9615 1 2.1155V10.8845C1 11.0385 1.06408 11.1796 1.19225 11.3077C1.32042 11.4359 1.4615 11.5 1.6155 11.5Z" fill="#232323"/>
</svg>
