<svg width="15" height="13" viewBox="0 0 15 13" fill="none" xmlns="http://www.w3.org/2000/svg">
<path d="M1.65394 12.8334C1.28951 12.8334 0.985243 12.7113 0.741146 12.4672C0.497049 12.2231 0.375 11.9188 0.375 11.5544V3.82062C0.375 3.45619 0.497049 3.15193 0.741146 2.90783C0.985243 2.66374 1.28951 2.54169 1.65394 2.54169H5.125V1.44543C5.125 1.08113 5.24705 0.77693 5.49115 0.532833C5.73524 0.288736 6.03951 0.166687 6.40394 0.166687H8.59606C8.96049 0.166687 9.26476 0.288736 9.50885 0.532833C9.75295 0.77693 9.875 1.08113 9.875 1.44543V2.54169H13.3461C13.7105 2.54169 14.0148 2.66374 14.2589 2.90783C14.503 3.15193 14.625 3.45619 14.625 3.82062V11.5544C14.625 11.9188 14.503 12.2231 14.2589 12.4672C14.0148 12.7113 13.7105 12.8334 13.3461 12.8334H1.65394ZM1.65394 12.0417H13.3461C13.468 12.0417 13.5797 11.991 13.6811 11.8895C13.7826 11.788 13.8333 11.6763 13.8333 11.5544V3.82062C13.8333 3.69871 13.7826 3.58702 13.6811 3.48555C13.5797 3.38409 13.468 3.33335 13.3461 3.33335H1.65394C1.53202 3.33335 1.42033 3.38409 1.31886 3.48555C1.2174 3.58702 1.16667 3.69871 1.16667 3.82062V11.5544C1.16667 11.6763 1.2174 11.788 1.31886 11.8895C1.42033 11.991 1.53202 12.0417 1.65394 12.0417ZM5.91667 2.54169H9.08333V1.44543C9.08333 1.32364 9.0326 1.21202 8.93114 1.11055C8.82967 1.00909 8.71798 0.958354 8.59606 0.958354H6.40394C6.28202 0.958354 6.17033 1.00909 6.06886 1.11055C5.9674 1.21202 5.91667 1.32364 5.91667 1.44543V2.54169Z" fill="#3B82F6"/>
</svg>
